# xmcd CD database file
#
# Track frame offsets:
#	150
#	18222
#	37315
#	56892
#	75802
#	100120
#	121600
#	147480
#	171267
#	196135
#	217102
#	240107
#	258502
#	279362
#
# Disc length: 4014 seconds
#
# Revision: 0
# Processed by: cddbd v1.5.1PL2 Copyright (c) Steve Scherf et al.
# Submitted via: CDex 1.51
#
DISCID=ba0fac0e
DTITLE=Various Artist - Jazzin' Around 2
DYEAR=1998
DGENRE=Jazz
TTITLE0=Paul Hardcastle - Love's Theme
TTITLE1=Earl Klugh - Big Turtle River
TTITLE2=Keiko Matsui - Bridge Over The Stars
TTITLE3=Michael Franks - Art Of Love
TTITLE4=Chuck Loeb - Just Us
TTITLE5=Norman Brown - That's The Way Love Goes
TTITLE6=Kilauea - Exotic Isle
TTITLE7=Special EFX - 'Til We Meet Again
TTITLE8=Kim Waters - Nightfall
TTITLE9=Dan Diegel - Starry Night
TTITLE10=Cieli Minucci - Reunion
TTITLE11=Stanley Ckarke - Justice's Groove
TTITLE12=Hiroko Kohubu - Bridge Over Troubled Water
TTITLE13=Jazzmasters - Inner Changes
EXTD=YEAR: 1998
EXTT0=
EXTT1=
EXTT2=
EXTT3=
EXTT4=
EXTT5=
EXTT6=
EXTT7=
EXTT8=
EXTT9=
EXTT10=
EXTT11=
EXTT12=
EXTT13=
PLAYORDER=
